<svg xmlns="http://www.w3.org/2000/svg" xmlns:xlink="http://www.w3.org/1999/xlink" viewBox="0 0 713 366">
  <g id="mid_logo_02" style="isolation: isolate">
    <path d="M319,144a32.74,32.74,0,0,1-3,10c-1.08-.91-.08.08-1-1s-.77-1.68-1-4c3.38-4.24.53-8.22,8-9,4.21,3.57,6.92,1.69,7,10-3,2.16-3.23,5.72-4,10h-2c0-6.2-1.37-6.38-3-10,4.54-.3,4.75-.45,6-4C323.58,144.7,323.17,144.2,319,144Z"   fill-rule="evenodd"/>
    <path d="M332,150l10,1v4c-2.09,1.12-1.83,1.43-5,2v-2a6.16,6.16,0,0,0,2-2h-2c-1.07-.75-.95-.6-3-1a15.61,15.61,0,0,0-1,5l7,2v2h-5c-1-.8-.27-.35-2-1C330.32,156,329.49,154.68,332,150Z"   fill-rule="evenodd"/>
    <path d="M357,156v3c-2.07,1.28-2.3,2.08-5,3v-1c-1.08-.91-.08.08-1-1a6.16,6.16,0,0,0,2-2,15.61,15.61,0,0,0-5-1,15.61,15.61,0,0,0-1,5l7,2v2h-3c-4.15-3.09-6.7-1.57-7-9,2.81-1.51,5-2,10-2C355.07,155.75,355,155.6,357,156Z"   fill-rule="evenodd"/>
    <path d="M361,167h5a14.17,14.17,0,0,0,1-4c-1.62-1.35-1.12-.64-2-3h3c1.37,2.54,1.92,3.5,2,8-2.54,1.37-3.5,1.92-8,2-1.38-1.11-2.87-1.49-5-2v-1c2.56-4.09,1.49-8.76,6-11v1h1A38.47,38.47,0,0,0,361,167Z"   fill-rule="evenodd"/>
    <path d="M375,165h7c2,2.89,2.86,2.55,3,8l-3,1c-2.35,1.54-4.28.59-7,0-.84-2.9-1.39-2.57-2-6A11.55,11.55,0,0,0,375,165Z"   fill-rule="evenodd"/>
    <path d="M390,165c3.25.83,1.53-.49,3,2-.8,1.18-.77,1.68-1,4l8-1v2c-2.24.59-2.66.75-4,2,1.94,1.67,1.67,1.44,2,5-1.08.91-.08-.08-1,1h-2c-.3-4.54-.45-4.75-4-6v1c-1.5,1.55-.78,1.84-3,3v-1c-.8-1.18-.77-1.68-1-4C388.72,170.91,389.53,168.37,390,165Z"   fill-rule="evenodd"/>
    <path d="M377,167a14.17,14.17,0,0,0-1,4c1.77,1,1.68,1.26,4,2,1.12-2.09,1.43-1.83,2-5A15.61,15.61,0,0,0,377,167Z"   fill-rule="evenodd"/>
  </g>
  <g id="mid_logo_01" style="isolation: isolate">
    <path d="M315,136l18,3c19.4,6.22,40.28,14.62,60,21,10,3.25,27.75,2.08,29,14-3.62,5.65-1.49,14.08-9,16-10.82-7.74-26.34-6.89-41-12-11.47-4-25.87-9.12-37-14-8.4-3.68-25.72-2.71-27-13C311.05,146.94,312.61,140.28,315,136Z"   fill-rule="evenodd"/>
    <path d="M319,144c3-.07,2.74-.76,4,0l3,2c-1.58,4.08-4,2.79-6,6,4.16,2,1.58,5.68,5,8v-2c1.53-2.24,4.67-10.05,5-13-3.76-2.36-6-4.5-12-5v1h-1c-.65,5.14-2.45,6.62-3,12,1.08.91.08-.08,1,1,1.08-.91.08.08,1-1C317.77,150.79,318.57,147.53,319,144Z"   fill-rule="evenodd"/>
    <path d="M342,152c-3.86-.82-4.62-1.88-10-2-1.3,2.42-1.8,2.83-2,7,2.53,1.84,7,6.68,10,2-4.67-.73-6.52-.58-7-6a14.17,14.17,0,0,1,4-1c1,.8.27.35,2,1v1c-1.62,1.35-1.12.64-2,3h3C341.12,154.91,341.43,155.17,342,152Z"   fill-rule="evenodd"/>
    <path d="M346,155c-1.3,2.42-1.8,2.83-2,7,3.19,1.84,5.25,3.36,10,4v-2c-5-.38-6.56-.71-7-6a15.61,15.61,0,0,1,5-1v1h1l-2,3h4c1.12-2.09,1.43-1.83,2-5-1.08-.91-.08.08-1-1Z"   fill-rule="evenodd"/>
    <path d="M361,167c.38-3.3,3.3-8.88,2-10v-1h-2q-2,6-4,12h2c2.23,1.79,4.8,2,9,2,1.37-2.54,1.92-3.5,2-8-2.09-1.12-1.83-1.43-5-2v2c1.83,1.57,1.4.88,2,4A18.26,18.26,0,0,1,361,167Z"   fill-rule="evenodd"/>
    <path d="M375,165a16.83,16.83,0,0,0-2,6c1.83,1.28,1.71,2,4,3,2.35,1.54,4.28.59,7,0a21.58,21.58,0,0,0,1-7C381.59,166,380.19,165.07,375,165Z"   fill-rule="evenodd"/>
    <path d="M392,171v-6h-2c-.7,4.94-2.49,6.51-3,12,1.08.91.08-.08,1,1h2a12.5,12.5,0,0,1,1-4h2c1,2,1.91,4.8,4,6v-1c.75-1.07.6-.95,1-3a8.88,8.88,0,0,1-3-3,14.35,14.35,0,0,0,5-1v-1a14.17,14.17,0,0,0-4-1C394.82,170.8,394.32,170.77,392,171Z"   fill-rule="evenodd"/>
    <path d="M377,167h4a14.17,14.17,0,0,1,1,4c-1.77,1-1.68,1.26-4,2C376.49,170.15,376.09,170.36,377,167Z"   fill-rule="evenodd"/>
    <path d="M403,170c-1,4.33-2.51,6-3,11,5.36,1.35,8.8,4.09,15,5v-1h1c.14-4.61,1.09-5.58,2-9C413.86,173.78,410.06,170.85,403,170Z"   fill-rule="evenodd"/>
  </g>
  <g id="mid_01" style="isolation: isolate">
    <path d="M487,187c-22.69,2.49-41.13,14.48-67,15v3c-6.74.16-12,2.6-17,4-8.22,2.29-18.27-.85-26,2s-18,2.93-27,6c-2.77.95-7.43,4.08-10,5-10.5,3.74-21.1,1.42-32,5-2.72.89-4.13,3.88-6,5l-16,2c-5.82,1.87-14.47,5.16-20,7l-5-1c-17.68,4.8-37.28-1.93-57-2v-2h1c4.84-4.39,3.22-.46,8-2,3.14-1,7.24-5.47,10-7,3.67-2,6-1.28,10-3,20.57-8.78,39.55-21.9,55-36,.17-14-7.76-21.88-12-32q-2.5-9-5-18c-1.51-2.07-3.55-1.26-5-4l23-2c10.06-3.36,17.73-14,35-10,43.65,10,79.84,27.16,118,42,10.55,4.1,37.13,10.15,43,17C486.34,182.68,486.64,184.14,487,187Z"   fill-rule="evenodd"/>
    <path d="M315,136c-3.1,5.63-6.34,10.91-7,19,20.53,7.43,43.36,15.91,64,23,5.67,1,11.33,3,17,4,8.08,2.89,17.8,6.51,27,8,1.92-6.41,5.3-11.56,6-20-8.48-5.07-21.42-7-32-10-2.33,0-4.67-2-7-2-5.4-2.18-12.32-4.05-18-6-8.42-2.89-15.55-5-24-8-2.42-.87-6.13-3.1-9-4C326,139,321,137,315,136Z"   fill-rule="evenodd"/>
  </g>
  <g id="front_03" style="isolation: isolate">
    <path d="M641,191c2.08.37,1.92.24,3,1,8,2.66,24.63,20.65,25,31-27.62,17.6-58.41,18.41-94,28H562c-10,2.48-22.32,1.35-34,4-13.53,3.07-54.74,6.7-68,4H436c-17.9,0-36,.07-52-3v-1h1c9.38-12.83,42.54-20.92,60-26,7-2,11.59-.12,19-2,26.23-6.67,48-4.9,73-11h16c7-1.77,17-5,24-7h11c6.15-1.54,13.56-1.89,21-4,9-2.56,17.67-6.69,30-7v-2C640.49,194.38,640.55,194,641,191Z"   fill-rule="evenodd"/>
  </g>
  <g id="sole_02" style="isolation: isolate">
    <path d="M480,310v3c-2.54,1.37-3.5,1.92-8,2-.29-.23-4-3-4-3s-8.07,3-12,3c-8.81,0-21.19-2.37-32,0-4.18.91-11.5,3.3-17,2-11.28-2.66-25.95-1-42-1H350c-10.42-2.36-26.37.8-39-2s-27.94,1.12-42-2c-5.4-1.2-16.71,1.21-23-1-11.87-4.17-28.38.27-43-3-19.07-4.26-42.78-1.08-61-6H124c-15.46-3.62-33.8-4.7-48-9-9.51-2.88-20-1.84-22-12h2c9.46,6.43,25.62,4.95,38,8,26,6.41,58.85,4,86,10l40,1c24.94,5.37,55.72-.47,81,5h23c15.52,3.29,35.65,1.21,53,2,13.78.63,39.51,2.95,53,0h21c6.73-.23,18.45-1.6,25-2,12.34-.76,25.08,1.76,36-2,4.82-1.66,8.21-6.5,12-9,4.34-2.86,13.67-3.71,19-5,15.59-3.77,29.6-1.23,45-5,35.1-8.58,68.11-12.63,94-30v5c-5.13,6.28-7.38,14.29-14,19-7,5-15.16,5.7-24,9-19,7.09-41.29,11.45-63,17l-27,3c-15.61,3.57-46.29,7.42-59,3,0,3.16,1.69,1.34-1,3-1.84,1.24-5.7,1.09-9,1v-2c.8-1,.35-.27,1-2Z"   fill-rule="evenodd"/>
  </g>
  <g id="sole_01" style="isolation: isolate">
    <path d="M58,218c31.14,17,81.22,10.21,121,19l34,1c6.16,1.4,14.65,2.86,21,4,6.78,1.22,16.94-3.34,24,0,1,.46,1.3,3.59,2,4,4.23,2.52,14.29-.36,17,0,12.37,1.65,32,1.85,46,5l25,1c15.63,3.54,36.14,2.27,53,6h16c11.46,2.44,37.13,2.93,47,1h26c11.09-1.68,27.41-1.61,38-4,11.68-2.64,24-1.54,34-4h13c23.33-6.23,50.16-7.93,72-16,5-1.84,12.56-4,17-7,3.64-2.49,3.9-6.55,9-8,4.32,10,9.53,22.11,10,35-4.12.15-8.16,5.79-13,8-10.47,4.78-23.12,7.35-34,11-24.13,8.08-51.57,7.63-77,14-10,2.5-18.45.2-28,3-7.53,2.21-11.89,9.47-19,12l-14,1c-20.95,4.76-47-1.11-68,4-8.51,2.07-45.8.76-53-1H362c-13.13,0-26.95.7-38-2l-45-1c-5.58-1.26-15.19.54-22-1-30.17-6.8-67,.1-96-7l-25-1c-18.74-4.3-39.81-3.2-58-8-6.88-1.82-18.81-6.69-25-5v-5c-2.86-3.93,1.52-44.23,1-46C52,224.13,56,221,58,218Z"   fill-rule="evenodd"/>
  </g>
  <g id="front_02" style="isolation: isolate">
    <path d="M423,203c20.78-.27,44.41,11.7,59,19v1h-1c-3.6,2.36-38.66,7.79-45,8-7.16-9.93-38.37-17.77-56-18v-2C390.16,211.2,417.4,207.46,423,203Z"   fill-rule="evenodd"/>
    <path d="M380,256v-3c-16.35-10-34.08-21.84-55-27v-1h1c3.72-2.73,8.9-1.29,14-3,2.05-.69,5.39-3.42,8-4,6.41-1.43,14.35,3.34,19,5,15.84,5.66,29.4,8.33,42,16v1C397.74,242.93,391.18,254.49,380,256Z"   fill-rule="evenodd"/>
  </g>
  <g id="laces_02" style="isolation: isolate">
    <path d="M404,123c.33,3.27,1.24,3.82,0,6-1.42,5.21-4.25,8.82-11,9-3.85-6.94-4.5-23.65-6-34-13.22.33-16.17,10.4-29,12-1-.8-.27-.35-2-1v-2c-1.86-2.94,3.32-19.66,5-24,2.48-1.11,3.23-1.69,7-2,4.39,3.92,10.11,3.18,16,6,5.17,2.48,10.75,11,15,13l11,1c2.88,1,4.73,4.78,7,6,4.7,2.52,8.81,2.2,13,5l4,5c5.91,2.68,12.93-.77,18,2l3,4c4.5,3.06,8.23,4.06,13,7,1.35.83,1.87,4.25,3,5,2.57,1.7,10.76,1.62,14,3,7.39,3.14,14.67,9.78,22,13,5.37,2.36,11.24,1.19,14,6h-1c-1.52,4.92-6,8.51-12,9-2.11,1.2-3.43.31-7,0a6.16,6.16,0,0,0-2-2c1.77-4.1,2.09-6.45,1-12-7.7-1-11.44-8.76-24-10v2c-1.58,2.51-2,8.44-3,11l-10,1c-2.23-3.54-3.1-5.37-3-12-1.09-1.63-1.59-5.86-2-8-8.62-.57-10.07-5.94-18-7-2.05,4.44-3.25,6-10,6-1.92-4-5.47-13.21-9-16Z"   fill-rule="evenodd"/>
    <path d="M434,125v2h1C434.37,125.25,434.81,126,434,125Z"   fill-rule="evenodd"/>
  </g>
  <g id="laces_01" style="isolation: isolate">
    <path d="M303,78c17.61-.63,56.09,3.63,57,17-3.54,5.07-5.29,13.35-4,20h2c3.95,2.23,20.28-7.08,25-9,3.5,5,6.95,11,8,26,.33,0,0,11,12,2,6.82-9.1-4.88-15.29,19-9,2.87,7,3.8,15.91,14,16,1.93-3.33,2.91-5.49,8-6,3.25,4.31,11.25,4.62,14,9,1.09,1.63,1.59,11.86,2,14,5.44,5.52,4.28,5.66,13,2,.94-4.29,2-11.46,7-12,3.18,2.64,11.29,4.52,15,6,1.34-.7,5.42-3.57,5,0-1.65,14-2.7,18,6,18,19.48-.1,2.56-20.64,33-4-3.62,8.4-7,20.95-16,24-1.92,1.54-8.61,3.44-13,2-8.61-2.82-16.63-9.68-24-14l-10-3c-30.2-14.6-62.13-23.57-95-36-16.28-6.16-30.89-12.92-50-18-11.69-3.11-27.29,1.15-35,5-.67,1-3.33,2-4,3-2.53,1.33-23.12,5.33-27,4-.87-.3-4.13-1.73-5-2-2,.33-4-3.33-6-3-3.22-1-11.59-5.66-13-9,12-7.72,22.16-19.69,34-28C283.49,87,294.82,84.52,303,78Z"   fill-rule="evenodd"/>
  </g>
  <g id="front_01" style="isolation: isolate">
    <path d="M538,169c12.82.83,21.56,9.84,34,13l20,1c11.39,2.55,25.92,3.42,36,6,4.48,1.15,8.82-.14,12,2,.75,1.07.6.95,1,3-7.18,6.63-40.78,12-53,15H577c-5.16,1.39-14.25,2.64-20,5-1.43.59-4.54,3.77-6,4-3.13.48-2.21-2.5-6-2-8.55,1.12-18,4.29-29,5-1.18.08-2.61-1.85-5-1-5.33,1.89-18,9.47-27,5-.33-1-.67-2-1-3-5.19-4.14-14.95-7.52-21-10-9.55-3.91-20.45-4.2-30-8-.33-1-.67-2-1-3,13.68-.78,34.27-7.57,46-12,3.42-1.29,14-5,14-5,13.3,4.41,15.59,12.19,34,8C529.8,184.69,535.34,179.14,538,169Z"   fill-rule="evenodd"/>
    <path d="M377,211c22.24,4.05,42.94,9.21,59,19v2c-8.84,1.82-16.62,6.56-27,8-8.8-12-38.51-14.76-54-21l-1-2C360.38,215.05,373,215.54,377,211Z"   fill-rule="evenodd"/>
    <path d="M380,256c-11.2.17-22.64-1.82-32-4l-25-1c-14.21-3.25-33.51-2.69-46-5-6.63-1.23-18.21,1.52-24-3h-1c0-1,1,2,1,1,20.39-.64,46.35-11.71,62-16,10.45-2.87,34,7.7,42,12C364.51,244,378.12,246.71,380,256Z"   fill-rule="evenodd"/>
  </g>
  <g id="flap_01" style="isolation: isolate">
    <path d="M271,29c8.37.43,15.31,6.47,21,10,4.6,2.86,9.43,3.22,14,6a191.08,191.08,0,0,1,33,25c4.93,4.69,12.57,8,15,15h-6c-6.86-5-8.4-3.69-13-4-.81,0-7.26-1.6-9-2-11.69-2.69-21.51-1.62-28,1-1.38.56-5.72,4.27-9,5-6.35,1.41-15.78,8.56-20,13C233.63,90.26,262,42.84,271,29Z"   fill-rule="evenodd"/>
  </g>
  <g id="heel_04" style="isolation: isolate">
    <path d="M287,187v3c-8,4.5-18.44,16.84-28,20-3.65,1.21-13-2.21-16-3-14.39-3.73-29-3.34-42-7-4.34-1.22-13-2-13-2-.65-.86-3.34-2.14-4-3-1.76,2.45-22.49-2.3-28-4-29.46-9.11-60.36-16.36-86-29v-1c4.59-3,8.71-9.18,14-11,7.74-2.66,18.49-.44,25,1l21,1c20.38,5.59,40.69,12,67,12h15c18.71-4.21,30.9-12.24,46-20,4.86-2.5,4-6.46,12-7,.33,1,.67,2,1,3,1.63,2.2,1.92,5.18,2,9-10.25,2.69-19.77,10.9-28,16-7.76,4.81-21,6.56-30,10-.54,1.52-32.67-1.31-33,1,.67,0,33.33,3,34,3,6.42,3.93,17.57.18,26,2,4.78,1,25.22,3.41,29,4C277.93,186.08,279.05,186.78,287,187Z"   fill-rule="evenodd"/>
  </g>
  <g id="heel_01" style="isolation: isolate">
    <path d="M269,150h4c5.6,9.25,14.75,24.53,15,38h-1c-3.83-2.43-8.76-.41-14-2-.79-.24-2.79-2.9-3-3H256c-17.55-3.8-39.86-1.08-56-4l-1-3c1.08-.91.08.08,1-1h12l2-3,11,1c12.89-3.57,22.32-9.76,32-16C261.51,154.09,265.86,154.13,269,150Z"   fill-rule="evenodd"/>
    <path d="M70,162c25.25,11.45,52.64,18.13,82,27,8.22,2.48,26.13,9.81,33,6a14.35,14.35,0,0,0,1,5c4.05-2.67,13.43-.73,20,1,14.95,3.94,34.46,3.54,49,9-8.36,8.95-20.64,10.77-32,17-7.22,4-11,10.73-22,11-7.42-4.37-23.07,0-32-2-26.23-5.86-56.61-3.1-81-10-7-2-21.52-.61-25-6-3.62-5.56.63-32,2-38,1.16-5-.18-12.1,1-14Z"   fill-rule="evenodd"/>
  </g>
  <g id="heel_02" style="isolation: isolate">
    <path d="M241,128c4.21.17,5.41.66,8,0,1.27,6.72,7.6,7.65,13,10v2c-15.33,9.82-29.28,19.33-50,24H197c-26.32,0-46.61-6.43-67-12l-21-1c-6.51-1.44-17.26-3.67-25-1-5.16,1.78-19.49,16.35-22,21-1.81,3.35,1.13,3-2,5-1,.25-.38.78-1,0-.8-1.18-.77-1.68-1-4,7.71-7.94,13-19.92,26-24,10.75-3.37,11.51,1.43,50,1,5.94-.07,10.12-.17,16-2,6.51-2,12.46-5.68,21-6,.3,4.91,3.88,3.29,11,3,2.8,1.87,15.4,2.09,20,1C216.3,141.61,232.32,137.22,241,128Z"   fill-rule="evenodd"/>
  </g>
  <g id="heel_03" style="isolation: isolate">
    <path d="M95,88v3h4c5.32,20.85,23.79,38.67,45,47l19,4v1c-5.67.41-8.71,3.24-13,4-20.95,3.71-29.85,3.07-38,2-10.73-1.41-19.2-1.81-27-1-7,.73-23.25,17.84-23,23,.19,3.8,1.09,3-2,5-1,.25-.38.78-1,0-.87-.74-1.13-1.26-2-2,2.46-4.45,6.4-8.91,8-14,1.84-5.84.56-9.94,3-15,2.92-6.06,7.51-14.36,10-20-.33-1.67,1.33-3.33,1-5h2c.33-3.33.67-6.67,1-10,2.7-8.28,5.86-15.73,10-22Z"   fill-rule="evenodd"/>
  </g>
  <g id="inside_01" style="isolation: isolate">
    <path d="M95,91V88H92c-.2-3.92-.38-2.64,0-6l2-1c3.61-2.9,7.58-1.4,13-1,2.67,3.49,7.39,5.51,10,9,5.78,7.72,9.59,18,18,23,16.46,9.7,71.82,17.39,95,7,15.22-6.82,25.49-21.85,44-26v2c-12.29,7.47-21.62,19.49-34,26,1,3.09,2.44,3.63,4,6-5.08,1.6-8.12,5.46-12,8l-24,9c-11.72,3.48-29.12.35-37-3-4.6-2-9.43,1.48-15,0-10.29-2.73-26.26-8.23-34-14-5-3.73-14.81-17.28-18-23-1.77-3.18-3.83-12.1-5-13Z"   fill-rule="evenodd"/>
    <path d="M279,89h2v1C279.25,89.37,280,89.81,279,89Z"  fill-rule="evenodd"/>
  </g>
  <g id="shadow_Image" data-name="shadow Image">
    <image id="shadow_Image-2" data-name="shadow Image" width="713" height="366" xlink:href="sneaker_021.png"/>
  </g>
</svg>
