<svg xmlns="http://www.w3.org/2000/svg" xmlns:xlink="http://www.w3.org/1999/xlink" viewBox="0 0 842 666">
  <g id="crown" style="isolation: isolate" class="g_to_interact_with">
    <path d="M573,32c17.66,5,81.34,5,182,76,72,59,81,162,81,364-4.67,0-6.33,13-8,20-3.44,1.12-6,4.94-10,6-10.2,2.69-22.69,1.78-32,4-7.6,1.81-12.4-1.9-19-2-10.09-.15-21.09,4.86-33,2-3.65-.88-10.54-.58-16-2-4.42-1.15-5-3.59-11-4-2.11,6.25-11.76-6.46-16-2-7.54-1.85-18.06,5.21-23,0-6.32.62-20.92.11-29-2-27-7.06-52.16-8.1-77-17l-14-2c-5.75-2.06-14-5.34-20-7l-10-1c-9.78-4.2-23.15-5.52-34-10-2-.82-4.2-4.27-6-5H464c-5.91-1.49-12.94-2.08-20-4-20.72-5.62-46.13-8.14-68-14l-24-3c-2.38-.89-5.6-4.23-8-5-5.29-1.7-11,1.4-14,2-1.28.26-16.83-1.21-20-2-2.89-.72-10.12-.72-14-2-3.27-1.08-6.56-5-10-6H272c-6.81-1.69-21.19-2.31-28-4-12.51-3.1-29.74.55-40-2-6.19-1.54-21.38,9.88-26,7-4.51-1.44-30.13-19.16-5,0-.4-19.05,6.84-52.38,11-69,3.39-13.55-1.29-25,2-38,4.22-16.74,5.27-35,10-52s11.12-36.56,17-52c2.18-5.72,1.49-10.44,4-16,22.8-50.56,64.22-90.24,111-117,4.12-2.36,8.6-1.89,13-4,10.46-5,24.54-9.5,35-14l10-1c12-3.25,27.66-6.89,40-10h12c21.9-5.43,48.09-7.89,74-8-.5-5-3.85-11.55-1-16,2.91-8.42,13-6.93,16-14C528,4.58,584,4.73,573,32Z" fill-rule="evenodd"/>
  </g>
  <g id="shadow_copy_2_Image" data-name="shadow copy 2 Image">
    <image id="shadow_copy_2_Image-2" data-name="shadow copy 2 Image" width="842" height="666" xlink:href="double-red-airtech-mesh-3d-logo-cap-allwhite1.png"/>
  </g>
  <g id="visor" style="isolation: isolate"  class="g_to_interact_with">
    <path d="M186,410c8.23-.13,16.45.62,22,2,12.51,3.1,29.74-.54,40,2,13.55,3.36,25.05-1.5,38,2,4,1.09,6.56,4.85,10,6,3.82,1.27,11.16,1.29,14,2,3.31.82,18.52,2.27,20,2,3-.55,8.71-3.72,14-2,2.41.78,5.62,4.11,8,5l24,3c21.85,5.88,47.28,8.41,68,14,7.06,1.91,14.09,2.53,20,4h14c35.79,14.69,80.42,25.34,120,36,13.19,3.55,24.41,2.45,38,6,3,.79,7,3.23,10,4,10.74,2.73,25.76-2,34-4,8-2,17.32,1.68,24,3a21.58,21.58,0,0,1,1,7c-6.39,4.28-10.63,11.62-16,17-6.26,6.26-14.12,11.41-20,18-4.52,5.07-7,11.44-12,16-9.88,9-21.8,15.25-32,24-20.38,17.49-41.44,38.25-65,52-14.11,8.23-30.7,13.41-46,20-6.58,2.83-12.29,1.08-20,3-29.71,7.4-76,1-102-8-12.28-4.25-23.7-4.51-36-9-17-6.23-36.88-14.35-53-22-8.18-3.88-17.08-2.46-25-6a714.29,714.29,0,0,0-112-39H148c-13-3.18-39-5.86-52-2-2.37.71-5.35,3.28-8,4-11.93,3.25-25.53.93-36,5-3.79,1.47-18,7.35-21,10-7.66,6.84-3,8.94-19,9-1-.8-.27-.35-2-1-1.71-2.73-2.54-2.5-3-7-.83-1.66-.24-2.59,0-6,10.42-7,18.68-20.48,28-29,7.74-7.08,17.1-12.14,24-20,3.58-4.08,3.44-10.9,8-14,5.23-3.56,11.45-4,16-8,2.39-2.13,3.72-5.72,6-8,8.33-8.33,17.67-15.67,26-24,4.29-4.29,7.53-9.92,12-14,2.88-2.63,7.06-3.39,10-6,3.09-2.76,5.06-7.06,8-10s7.24-4.91,10-8c7.63-8.57,13.28-18.61,21-27C180.17,412.07,183.69,411.75,186,410Z" fill-rule="evenodd"/>
  </g>
</svg>
